<?xml version="1.0" encoding="UTF-8" standalone="no"?>
<!DOCTYPE svg PUBLIC "-//W3C//DTD SVG 1.1//EN"
 "http://www.w3.org/Graphics/SVG/1.1/DTD/svg11.dtd">
<!-- Generated by graphviz version 2.47.0 (20210316.0004)
 -->
<!-- Title: dbml Pages: 1 -->
<svg width="1810pt" height="1927pt"
 viewBox="0.00 0.00 1810.35 1927.48" xmlns="http://www.w3.org/2000/svg" xmlns:xlink="http://www.w3.org/1999/xlink">
<g id="graph0" class="graph" transform="scale(1 1) rotate(0) translate(4 1923.48)">
<title>dbml</title>
<!-- role -->
<g id="role" class="node">
<title>role</title>
<ellipse fill="none" stroke="black" stroke-width="0" cx="1349.8" cy="-273.95" rx="143.59" ry="214.92"/>
<polygon fill="#29235c" stroke="transparent" points="1250.8,-363.95 1250.8,-423.95 1449.8,-423.95 1449.8,-363.95 1250.8,-363.95"/>
<polygon fill="none" stroke="#29235c" points="1250.8,-363.95 1250.8,-423.95 1449.8,-423.95 1449.8,-363.95 1250.8,-363.95"/>
<text text-anchor="start" x="1261.39" y="-385.15" font-family="Helvetica,sans-Serif" font-weight="bold" font-size="32.00" fill="#ffffff"> &#160;&#160;&#160;&#160;&#160;&#160;role &#160;&#160;&#160;&#160;&#160;&#160;</text>
<polygon fill="#e7e2dd" stroke="transparent" points="1250.8,-303.95 1250.8,-363.95 1449.8,-363.95 1449.8,-303.95 1250.8,-303.95"/>
<polygon fill="none" stroke="#29235c" points="1250.8,-303.95 1250.8,-363.95 1449.8,-363.95 1449.8,-303.95 1250.8,-303.95"/>
<text text-anchor="start" x="1265.85" y="-325.15" font-family="Helvetica,sans-Serif" font-style="italic" font-size="32.00" fill="#1d71b8"> &#160;&#160;&#160;normal &#160;&#160;&#160;</text>
<polygon fill="#e7e2dd" stroke="transparent" points="1250.8,-243.95 1250.8,-303.95 1449.8,-303.95 1449.8,-243.95 1250.8,-243.95"/>
<polygon fill="none" stroke="#29235c" points="1250.8,-243.95 1250.8,-303.95 1449.8,-303.95 1449.8,-243.95 1250.8,-243.95"/>
<text text-anchor="start" x="1262.26" y="-265.15" font-family="Helvetica,sans-Serif" font-style="italic" font-size="32.00" fill="#1d71b8"> &#160;&#160;&#160;student &#160;&#160;&#160;</text>
<polygon fill="#e7e2dd" stroke="transparent" points="1250.8,-183.95 1250.8,-243.95 1449.8,-243.95 1449.8,-183.95 1250.8,-183.95"/>
<polygon fill="none" stroke="#29235c" points="1250.8,-183.95 1250.8,-243.95 1449.8,-243.95 1449.8,-183.95 1250.8,-183.95"/>
<text text-anchor="start" x="1283.62" y="-205.15" font-family="Helvetica,sans-Serif" font-style="italic" font-size="32.00" fill="#1d71b8"> &#160;&#160;&#160;mod &#160;&#160;&#160;</text>
<polygon fill="#e7e2dd" stroke="transparent" points="1250.8,-123.95 1250.8,-183.95 1449.8,-183.95 1449.8,-123.95 1250.8,-123.95"/>
<polygon fill="none" stroke="#29235c" points="1250.8,-123.95 1250.8,-183.95 1449.8,-183.95 1449.8,-123.95 1250.8,-123.95"/>
<text text-anchor="start" x="1271.17" y="-145.15" font-family="Helvetica,sans-Serif" font-style="italic" font-size="32.00" fill="#1d71b8"> &#160;&#160;&#160;admin &#160;&#160;&#160;</text>
<polygon fill="none" stroke="#29235c" stroke-width="2" points="1249.3,-122.95 1249.3,-424.95 1450.3,-424.95 1450.3,-122.95 1249.3,-122.95"/>
</g>
<!-- tyfons_lab_access_tokens -->
<g id="tyfons_lab_access_tokens" class="node">
<title>tyfons_lab_access_tokens</title>
<ellipse fill="none" stroke="black" stroke-width="0" cx="1349.8" cy="-721.95" rx="452.6" ry="214.92"/>
<polygon fill="#1d71b8" stroke="transparent" points="1031.8,-811.95 1031.8,-871.95 1667.8,-871.95 1667.8,-811.95 1031.8,-811.95"/>
<polygon fill="none" stroke="#29235c" points="1031.8,-811.95 1031.8,-871.95 1667.8,-871.95 1667.8,-811.95 1031.8,-811.95"/>
<text text-anchor="start" x="1099.93" y="-833.15" font-family="Helvetica,sans-Serif" font-weight="bold" font-size="32.00" fill="#ffffff"> &#160;&#160;&#160;&#160;&#160;&#160;tyfons_lab_access_tokens &#160;&#160;&#160;&#160;&#160;&#160;</text>
<polygon fill="#e7e2dd" stroke="transparent" points="1031.8,-751.95 1031.8,-811.95 1667.8,-811.95 1667.8,-751.95 1031.8,-751.95"/>
<polygon fill="none" stroke="#29235c" points="1031.8,-751.95 1031.8,-811.95 1667.8,-811.95 1667.8,-751.95 1031.8,-751.95"/>
<text text-anchor="start" x="1042.8" y="-773.15" font-family="Helvetica,sans-Serif" font-weight="bold" font-size="32.00" fill="#29235c">id</text>
<text text-anchor="start" x="1067.69" y="-773.15" font-family="Helvetica,sans-Serif" font-size="32.00" fill="#29235c"> &#160;&#160;&#160;</text>
<text text-anchor="start" x="1566.14" y="-773.15" font-family="Helvetica,sans-Serif" font-style="italic" font-size="32.00" fill="#29235c">text</text>
<text text-anchor="start" x="1617.71" y="-773.15" font-family="Helvetica,sans-Serif" font-size="32.00" fill="#29235c"> </text>
<text text-anchor="start" x="1626.61" y="-773.15" font-family="Helvetica,sans-Serif" font-weight="bold" font-size="32.00" fill="#29235c">(!)</text>
<polygon fill="#e7e2dd" stroke="transparent" points="1031.8,-691.95 1031.8,-751.95 1667.8,-751.95 1667.8,-691.95 1031.8,-691.95"/>
<polygon fill="none" stroke="#29235c" points="1031.8,-691.95 1031.8,-751.95 1667.8,-751.95 1667.8,-691.95 1031.8,-691.95"/>
<text text-anchor="start" x="1042.8" y="-712.15" font-family="Helvetica,sans-Serif" font-size="32.00" fill="#29235c">user_id &#160;&#160;&#160;</text>
<text text-anchor="start" x="1566.14" y="-713.15" font-family="Helvetica,sans-Serif" font-style="italic" font-size="32.00" fill="#29235c">text</text>
<text text-anchor="start" x="1617.71" y="-713.15" font-family="Helvetica,sans-Serif" font-size="32.00" fill="#29235c"> </text>
<text text-anchor="start" x="1626.61" y="-713.15" font-family="Helvetica,sans-Serif" font-weight="bold" font-size="32.00" fill="#29235c">(!)</text>
<polygon fill="#e7e2dd" stroke="transparent" points="1031.8,-631.95 1031.8,-691.95 1667.8,-691.95 1667.8,-631.95 1031.8,-631.95"/>
<polygon fill="none" stroke="#29235c" points="1031.8,-631.95 1031.8,-691.95 1667.8,-691.95 1667.8,-631.95 1031.8,-631.95"/>
<text text-anchor="start" x="1042.8" y="-652.15" font-family="Helvetica,sans-Serif" font-size="32.00" fill="#29235c">token &#160;&#160;&#160;</text>
<text text-anchor="start" x="1454.16" y="-653.15" font-family="Helvetica,sans-Serif" font-style="italic" font-size="32.00" fill="#29235c">varchar(30)</text>
<text text-anchor="start" x="1617.71" y="-653.15" font-family="Helvetica,sans-Serif" font-size="32.00" fill="#29235c"> </text>
<text text-anchor="start" x="1626.61" y="-653.15" font-family="Helvetica,sans-Serif" font-weight="bold" font-size="32.00" fill="#29235c">(!)</text>
<polygon fill="#e7e2dd" stroke="transparent" points="1031.8,-571.95 1031.8,-631.95 1667.8,-631.95 1667.8,-571.95 1031.8,-571.95"/>
<polygon fill="none" stroke="#29235c" points="1031.8,-571.95 1031.8,-631.95 1667.8,-631.95 1667.8,-571.95 1031.8,-571.95"/>
<text text-anchor="start" x="1042.65" y="-592.15" font-family="Helvetica,sans-Serif" font-size="32.00" fill="#29235c">expiration_date &#160;&#160;&#160;</text>
<text text-anchor="start" x="1296.34" y="-593.15" font-family="Helvetica,sans-Serif" font-style="italic" font-size="32.00" fill="#29235c">timestamp with time zone</text>
<polygon fill="none" stroke="#29235c" stroke-width="2" points="1030.8,-570.95 1030.8,-872.95 1668.8,-872.95 1668.8,-570.95 1030.8,-570.95"/>
</g>
<!-- tyfons_lab_post -->
<g id="tyfons_lab_post" class="node">
<title>tyfons_lab_post</title>
<ellipse fill="none" stroke="black" stroke-width="0" cx="430.63" cy="-1298.95" rx="281.36" ry="257.27"/>
<polygon fill="#1d71b8" stroke="transparent" points="233.63,-1418.95 233.63,-1478.95 627.63,-1478.95 627.63,-1418.95 233.63,-1418.95"/>
<polygon fill="none" stroke="#29235c" points="233.63,-1418.95 233.63,-1478.95 627.63,-1478.95 627.63,-1418.95 233.63,-1418.95"/>
<text text-anchor="start" x="256.33" y="-1440.15" font-family="Helvetica,sans-Serif" font-weight="bold" font-size="32.00" fill="#ffffff"> &#160;&#160;&#160;&#160;&#160;&#160;tyfons_lab_post &#160;&#160;&#160;&#160;&#160;&#160;</text>
<polygon fill="#e7e2dd" stroke="transparent" points="233.63,-1358.95 233.63,-1418.95 627.63,-1418.95 627.63,-1358.95 233.63,-1358.95"/>
<polygon fill="none" stroke="#29235c" points="233.63,-1358.95 233.63,-1418.95 627.63,-1418.95 627.63,-1358.95 233.63,-1358.95"/>
<text text-anchor="start" x="244.63" y="-1380.15" font-family="Helvetica,sans-Serif" font-weight="bold" font-size="32.00" fill="#29235c">id</text>
<text text-anchor="start" x="269.52" y="-1380.15" font-family="Helvetica,sans-Serif" font-size="32.00" fill="#29235c"> &#160;&#160;&#160;</text>
<text text-anchor="start" x="501.1" y="-1380.15" font-family="Helvetica,sans-Serif" font-style="italic" font-size="32.00" fill="#29235c">serial</text>
<text text-anchor="start" x="577.54" y="-1380.15" font-family="Helvetica,sans-Serif" font-size="32.00" fill="#29235c"> </text>
<text text-anchor="start" x="586.43" y="-1380.15" font-family="Helvetica,sans-Serif" font-weight="bold" font-size="32.00" fill="#29235c">(!)</text>
<polygon fill="#e7e2dd" stroke="transparent" points="233.63,-1298.95 233.63,-1358.95 627.63,-1358.95 627.63,-1298.95 233.63,-1298.95"/>
<polygon fill="none" stroke="#29235c" points="233.63,-1298.95 233.63,-1358.95 627.63,-1358.95 627.63,-1298.95 233.63,-1298.95"/>
<text text-anchor="start" x="244.63" y="-1319.15" font-family="Helvetica,sans-Serif" font-size="32.00" fill="#29235c">name &#160;&#160;&#160;</text>
<text text-anchor="start" x="396.19" y="-1320.15" font-family="Helvetica,sans-Serif" font-style="italic" font-size="32.00" fill="#29235c">varchar(256)</text>
<text text-anchor="start" x="577.54" y="-1320.15" font-family="Helvetica,sans-Serif" font-size="32.00" fill="#29235c"> </text>
<text text-anchor="start" x="586.43" y="-1320.15" font-family="Helvetica,sans-Serif" font-weight="bold" font-size="32.00" fill="#29235c">(!)</text>
<polygon fill="#e7e2dd" stroke="transparent" points="233.63,-1238.95 233.63,-1298.95 627.63,-1298.95 627.63,-1238.95 233.63,-1238.95"/>
<polygon fill="none" stroke="#29235c" points="233.63,-1238.95 233.63,-1298.95 627.63,-1298.95 627.63,-1238.95 233.63,-1238.95"/>
<text text-anchor="start" x="244.63" y="-1259.15" font-family="Helvetica,sans-Serif" font-size="32.00" fill="#29235c">content &#160;&#160;&#160;</text>
<text text-anchor="start" x="396.19" y="-1260.15" font-family="Helvetica,sans-Serif" font-style="italic" font-size="32.00" fill="#29235c">varchar(256)</text>
<text text-anchor="start" x="577.54" y="-1260.15" font-family="Helvetica,sans-Serif" font-size="32.00" fill="#29235c"> </text>
<text text-anchor="start" x="586.43" y="-1260.15" font-family="Helvetica,sans-Serif" font-weight="bold" font-size="32.00" fill="#29235c">(!)</text>
<polygon fill="#e7e2dd" stroke="transparent" points="233.63,-1178.95 233.63,-1238.95 627.63,-1238.95 627.63,-1178.95 233.63,-1178.95"/>
<polygon fill="none" stroke="#29235c" points="233.63,-1178.95 233.63,-1238.95 627.63,-1238.95 627.63,-1178.95 233.63,-1178.95"/>
<text text-anchor="start" x="244.26" y="-1199.15" font-family="Helvetica,sans-Serif" font-size="32.00" fill="#29235c">created_at &#160;&#160;&#160;</text>
<text text-anchor="start" x="430.3" y="-1200.15" font-family="Helvetica,sans-Serif" font-style="italic" font-size="32.00" fill="#29235c">timestamp</text>
<text text-anchor="start" x="577.86" y="-1200.15" font-family="Helvetica,sans-Serif" font-size="32.00" fill="#29235c"> </text>
<text text-anchor="start" x="586.75" y="-1200.15" font-family="Helvetica,sans-Serif" font-weight="bold" font-size="32.00" fill="#29235c">(!)</text>
<polygon fill="#e7e2dd" stroke="transparent" points="233.63,-1118.95 233.63,-1178.95 627.63,-1178.95 627.63,-1118.95 233.63,-1118.95"/>
<polygon fill="none" stroke="#29235c" points="233.63,-1118.95 233.63,-1178.95 627.63,-1178.95 627.63,-1118.95 233.63,-1118.95"/>
<text text-anchor="start" x="244.63" y="-1139.15" font-family="Helvetica,sans-Serif" font-size="32.00" fill="#29235c">updatedAt &#160;&#160;&#160;</text>
<text text-anchor="start" x="469.07" y="-1140.15" font-family="Helvetica,sans-Serif" font-style="italic" font-size="32.00" fill="#29235c">timestamp</text>
<polygon fill="none" stroke="#29235c" stroke-width="2" points="232.63,-1117.95 232.63,-1479.95 628.63,-1479.95 628.63,-1117.95 232.63,-1117.95"/>
</g>
<!-- tyfons_lab_session -->
<g id="tyfons_lab_session" class="node">
<title>tyfons_lab_session</title>
<ellipse fill="none" stroke="black" stroke-width="0" cx="430.63" cy="-1746.95" rx="430.76" ry="172.57"/>
<polygon fill="#1d71b8" stroke="transparent" points="128.63,-1806.95 128.63,-1866.95 733.63,-1866.95 733.63,-1806.95 128.63,-1806.95"/>
<polygon fill="none" stroke="#29235c" points="128.63,-1806.95 128.63,-1866.95 733.63,-1866.95 733.63,-1806.95 128.63,-1806.95"/>
<text text-anchor="start" x="232.84" y="-1828.15" font-family="Helvetica,sans-Serif" font-weight="bold" font-size="32.00" fill="#ffffff"> &#160;&#160;&#160;&#160;&#160;&#160;tyfons_lab_session &#160;&#160;&#160;&#160;&#160;&#160;</text>
<polygon fill="#e7e2dd" stroke="transparent" points="128.63,-1746.95 128.63,-1806.95 733.63,-1806.95 733.63,-1746.95 128.63,-1746.95"/>
<polygon fill="none" stroke="#29235c" points="128.63,-1746.95 128.63,-1806.95 733.63,-1806.95 733.63,-1746.95 128.63,-1746.95"/>
<text text-anchor="start" x="139.63" y="-1768.15" font-family="Helvetica,sans-Serif" font-weight="bold" font-size="32.00" fill="#29235c">id</text>
<text text-anchor="start" x="164.52" y="-1768.15" font-family="Helvetica,sans-Serif" font-size="32.00" fill="#29235c"> &#160;&#160;&#160;</text>
<text text-anchor="start" x="631.96" y="-1768.15" font-family="Helvetica,sans-Serif" font-style="italic" font-size="32.00" fill="#29235c">text</text>
<text text-anchor="start" x="683.54" y="-1768.15" font-family="Helvetica,sans-Serif" font-size="32.00" fill="#29235c"> </text>
<text text-anchor="start" x="692.43" y="-1768.15" font-family="Helvetica,sans-Serif" font-weight="bold" font-size="32.00" fill="#29235c">(!)</text>
<polygon fill="#e7e2dd" stroke="transparent" points="128.63,-1686.95 128.63,-1746.95 733.63,-1746.95 733.63,-1686.95 128.63,-1686.95"/>
<polygon fill="none" stroke="#29235c" points="128.63,-1686.95 128.63,-1746.95 733.63,-1746.95 733.63,-1686.95 128.63,-1686.95"/>
<text text-anchor="start" x="139.63" y="-1707.15" font-family="Helvetica,sans-Serif" font-size="32.00" fill="#29235c">user_id &#160;&#160;&#160;</text>
<text text-anchor="start" x="631.96" y="-1708.15" font-family="Helvetica,sans-Serif" font-style="italic" font-size="32.00" fill="#29235c">text</text>
<text text-anchor="start" x="683.54" y="-1708.15" font-family="Helvetica,sans-Serif" font-size="32.00" fill="#29235c"> </text>
<text text-anchor="start" x="692.43" y="-1708.15" font-family="Helvetica,sans-Serif" font-weight="bold" font-size="32.00" fill="#29235c">(!)</text>
<polygon fill="#e7e2dd" stroke="transparent" points="128.63,-1626.95 128.63,-1686.95 733.63,-1686.95 733.63,-1626.95 128.63,-1626.95"/>
<polygon fill="none" stroke="#29235c" points="128.63,-1626.95 128.63,-1686.95 733.63,-1686.95 733.63,-1626.95 128.63,-1626.95"/>
<text text-anchor="start" x="139.55" y="-1647.15" font-family="Helvetica,sans-Serif" font-size="32.00" fill="#29235c">expires_at &#160;&#160;&#160;</text>
<text text-anchor="start" x="322.62" y="-1648.15" font-family="Helvetica,sans-Serif" font-style="italic" font-size="32.00" fill="#29235c">timestamp with time zone</text>
<text text-anchor="start" x="683.54" y="-1648.15" font-family="Helvetica,sans-Serif" font-size="32.00" fill="#29235c"> </text>
<text text-anchor="start" x="692.44" y="-1648.15" font-family="Helvetica,sans-Serif" font-weight="bold" font-size="32.00" fill="#29235c">(!)</text>
<polygon fill="none" stroke="#29235c" stroke-width="2" points="127.13,-1625.95 127.13,-1867.95 734.13,-1867.95 734.13,-1625.95 127.13,-1625.95"/>
</g>
<!-- tyfons_lab_user -->
<g id="tyfons_lab_user" class="node">
<title>tyfons_lab_user</title>
<ellipse fill="none" stroke="black" stroke-width="0" cx="430.63" cy="-511.95" rx="319.72" ry="511.89"/>
<polygon fill="#1d71b8" stroke="transparent" points="206.63,-811.95 206.63,-871.95 654.63,-871.95 654.63,-811.95 206.63,-811.95"/>
<polygon fill="none" stroke="#29235c" points="206.63,-811.95 206.63,-871.95 654.63,-871.95 654.63,-811.95 206.63,-811.95"/>
<text text-anchor="start" x="255.45" y="-833.15" font-family="Helvetica,sans-Serif" font-weight="bold" font-size="32.00" fill="#ffffff"> &#160;&#160;&#160;&#160;&#160;&#160;tyfons_lab_user &#160;&#160;&#160;&#160;&#160;&#160;</text>
<polygon fill="#e7e2dd" stroke="transparent" points="206.63,-751.95 206.63,-811.95 654.63,-811.95 654.63,-751.95 206.63,-751.95"/>
<polygon fill="none" stroke="#29235c" points="206.63,-751.95 206.63,-811.95 654.63,-811.95 654.63,-751.95 206.63,-751.95"/>
<text text-anchor="start" x="217.63" y="-773.15" font-family="Helvetica,sans-Serif" font-weight="bold" font-size="32.00" fill="#29235c">id</text>
<text text-anchor="start" x="242.52" y="-773.15" font-family="Helvetica,sans-Serif" font-size="32.00" fill="#29235c"> &#160;&#160;&#160;</text>
<text text-anchor="start" x="552.96" y="-773.15" font-family="Helvetica,sans-Serif" font-style="italic" font-size="32.00" fill="#29235c">text</text>
<text text-anchor="start" x="604.54" y="-773.15" font-family="Helvetica,sans-Serif" font-size="32.00" fill="#29235c"> </text>
<text text-anchor="start" x="613.43" y="-773.15" font-family="Helvetica,sans-Serif" font-weight="bold" font-size="32.00" fill="#29235c">(!)</text>
<polygon fill="#e7e2dd" stroke="transparent" points="206.63,-691.95 206.63,-751.95 654.63,-751.95 654.63,-691.95 206.63,-691.95"/>
<polygon fill="none" stroke="#29235c" points="206.63,-691.95 206.63,-751.95 654.63,-751.95 654.63,-691.95 206.63,-691.95"/>
<text text-anchor="start" x="217.63" y="-712.15" font-family="Helvetica,sans-Serif" font-size="32.00" fill="#29235c">name &#160;&#160;&#160;</text>
<text text-anchor="start" x="462.28" y="-713.15" font-family="Helvetica,sans-Serif" font-style="italic" font-size="32.00" fill="#29235c">varchar(255)</text>
<polygon fill="#e7e2dd" stroke="transparent" points="206.63,-631.95 206.63,-691.95 654.63,-691.95 654.63,-631.95 206.63,-631.95"/>
<polygon fill="none" stroke="#29235c" points="206.63,-631.95 206.63,-691.95 654.63,-691.95 654.63,-631.95 206.63,-631.95"/>
<text text-anchor="start" x="217.63" y="-652.15" font-family="Helvetica,sans-Serif" font-size="32.00" fill="#29235c">email &#160;&#160;&#160;</text>
<text text-anchor="start" x="423.19" y="-653.15" font-family="Helvetica,sans-Serif" font-style="italic" font-size="32.00" fill="#29235c">varchar(255)</text>
<text text-anchor="start" x="604.54" y="-653.15" font-family="Helvetica,sans-Serif" font-size="32.00" fill="#29235c"> </text>
<text text-anchor="start" x="613.43" y="-653.15" font-family="Helvetica,sans-Serif" font-weight="bold" font-size="32.00" fill="#29235c">(!)</text>
<polygon fill="#e7e2dd" stroke="transparent" points="206.63,-571.95 206.63,-631.95 654.63,-631.95 654.63,-571.95 206.63,-571.95"/>
<polygon fill="none" stroke="#29235c" points="206.63,-571.95 206.63,-631.95 654.63,-631.95 654.63,-571.95 206.63,-571.95"/>
<text text-anchor="start" x="217.63" y="-592.15" font-family="Helvetica,sans-Serif" font-size="32.00" fill="#29235c">emailVerified &#160;&#160;&#160;</text>
<text text-anchor="start" x="496.07" y="-593.15" font-family="Helvetica,sans-Serif" font-style="italic" font-size="32.00" fill="#29235c">timestamp</text>
<polygon fill="#e7e2dd" stroke="transparent" points="206.63,-511.95 206.63,-571.95 654.63,-571.95 654.63,-511.95 206.63,-511.95"/>
<polygon fill="none" stroke="#29235c" points="206.63,-511.95 206.63,-571.95 654.63,-571.95 654.63,-511.95 206.63,-511.95"/>
<text text-anchor="start" x="217.63" y="-532.15" font-family="Helvetica,sans-Serif" font-size="32.00" fill="#29235c">image &#160;&#160;&#160;</text>
<text text-anchor="start" x="462.28" y="-533.15" font-family="Helvetica,sans-Serif" font-style="italic" font-size="32.00" fill="#29235c">varchar(255)</text>
<polygon fill="#e7e2dd" stroke="transparent" points="206.63,-451.95 206.63,-511.95 654.63,-511.95 654.63,-451.95 206.63,-451.95"/>
<polygon fill="none" stroke="#29235c" points="206.63,-451.95 206.63,-511.95 654.63,-511.95 654.63,-451.95 206.63,-451.95"/>
<text text-anchor="start" x="217.63" y="-472.15" font-family="Helvetica,sans-Serif" font-size="32.00" fill="#29235c">role &#160;&#160;&#160;</text>
<text text-anchor="start" x="551.21" y="-473.15" font-family="Helvetica,sans-Serif" font-style="italic" font-size="32.00" fill="#29235c">role</text>
<text text-anchor="start" x="604.54" y="-473.15" font-family="Helvetica,sans-Serif" font-size="32.00" fill="#29235c"> </text>
<text text-anchor="start" x="613.43" y="-473.15" font-family="Helvetica,sans-Serif" font-weight="bold" font-size="32.00" fill="#29235c">(!)</text>
<polygon fill="#e7e2dd" stroke="transparent" points="206.63,-391.95 206.63,-451.95 654.63,-451.95 654.63,-391.95 206.63,-391.95"/>
<polygon fill="none" stroke="#29235c" points="206.63,-391.95 206.63,-451.95 654.63,-451.95 654.63,-391.95 206.63,-391.95"/>
<text text-anchor="start" x="217.63" y="-412.15" font-family="Helvetica,sans-Serif" font-size="32.00" fill="#29235c">tokenId &#160;&#160;&#160;</text>
<text text-anchor="start" x="592.05" y="-413.15" font-family="Helvetica,sans-Serif" font-style="italic" font-size="32.00" fill="#29235c">text</text>
<polygon fill="#e7e2dd" stroke="transparent" points="206.63,-331.95 206.63,-391.95 654.63,-391.95 654.63,-331.95 206.63,-331.95"/>
<polygon fill="none" stroke="#29235c" points="206.63,-331.95 206.63,-391.95 654.63,-391.95 654.63,-331.95 206.63,-331.95"/>
<text text-anchor="start" x="217.63" y="-352.15" font-family="Helvetica,sans-Serif" font-size="32.00" fill="#29235c">updated_at &#160;&#160;&#160;</text>
<text text-anchor="start" x="456.98" y="-353.15" font-family="Helvetica,sans-Serif" font-style="italic" font-size="32.00" fill="#29235c">timestamp</text>
<text text-anchor="start" x="604.54" y="-353.15" font-family="Helvetica,sans-Serif" font-size="32.00" fill="#29235c"> </text>
<text text-anchor="start" x="613.43" y="-353.15" font-family="Helvetica,sans-Serif" font-weight="bold" font-size="32.00" fill="#29235c">(!)</text>
<polygon fill="#e7e2dd" stroke="transparent" points="206.63,-271.95 206.63,-331.95 654.63,-331.95 654.63,-271.95 206.63,-271.95"/>
<polygon fill="none" stroke="#29235c" points="206.63,-271.95 206.63,-331.95 654.63,-331.95 654.63,-271.95 206.63,-271.95"/>
<text text-anchor="start" x="217.63" y="-292.15" font-family="Helvetica,sans-Serif" font-size="32.00" fill="#29235c">created_at &#160;&#160;&#160;</text>
<text text-anchor="start" x="456.98" y="-293.15" font-family="Helvetica,sans-Serif" font-style="italic" font-size="32.00" fill="#29235c">timestamp</text>
<text text-anchor="start" x="604.54" y="-293.15" font-family="Helvetica,sans-Serif" font-size="32.00" fill="#29235c"> </text>
<text text-anchor="start" x="613.43" y="-293.15" font-family="Helvetica,sans-Serif" font-weight="bold" font-size="32.00" fill="#29235c">(!)</text>
<polygon fill="#e7e2dd" stroke="transparent" points="206.63,-211.95 206.63,-271.95 654.63,-271.95 654.63,-211.95 206.63,-211.95"/>
<polygon fill="none" stroke="#29235c" points="206.63,-211.95 206.63,-271.95 654.63,-271.95 654.63,-211.95 206.63,-211.95"/>
<text text-anchor="start" x="217.63" y="-232.15" font-family="Helvetica,sans-Serif" font-size="32.00" fill="#29235c">created_by_id &#160;&#160;&#160;</text>
<text text-anchor="start" x="462.28" y="-233.15" font-family="Helvetica,sans-Serif" font-style="italic" font-size="32.00" fill="#29235c">varchar(255)</text>
<polygon fill="#e7e2dd" stroke="transparent" points="206.63,-151.95 206.63,-211.95 654.63,-211.95 654.63,-151.95 206.63,-151.95"/>
<polygon fill="none" stroke="#29235c" points="206.63,-151.95 206.63,-211.95 654.63,-211.95 654.63,-151.95 206.63,-151.95"/>
<text text-anchor="start" x="217.4" y="-172.15" font-family="Helvetica,sans-Serif" font-size="32.00" fill="#29235c">updated_by_id &#160;&#160;&#160;</text>
<text text-anchor="start" x="462.46" y="-173.15" font-family="Helvetica,sans-Serif" font-style="italic" font-size="32.00" fill="#29235c">varchar(255)</text>
<polygon fill="none" stroke="#29235c" stroke-width="2" points="205.63,-150.95 205.63,-872.95 655.63,-872.95 655.63,-150.95 205.63,-150.95"/>
</g>
<!-- tyfons_lab_user&#45;&gt;role -->
<g id="edge3" class="edge">
<title>tyfons_lab_user:e&#45;&gt;role:w</title>
<path fill="none" stroke="#29235c" stroke-width="3" d="M655.63,-481.95C922.59,-481.95 982.85,-393.95 1249.8,-393.95"/>
</g>
<!-- tyfons_lab_user&#45;&gt;tyfons_lab_access_tokens -->
<!-- tyfons_lab_user&#45;&gt;tyfons_lab_access_tokens -->
<g id="edge2" class="edge">
<title>tyfons_lab_user:e&#45;&gt;tyfons_lab_access_tokens:w</title>
<path fill="none" stroke="#29235c" stroke-width="3" d="M655.63,-421.95C883.22,-421.95 802.27,-771.13 1020.53,-781.7"/>
<polygon fill="#29235c" stroke="#29235c" stroke-width="3" points="1020.72,-785.21 1030.8,-781.95 1020.89,-778.21 1020.72,-785.21"/>
<text text-anchor="middle" x="1021.91" y="-791.55" font-family="Helvetica,sans-Serif" font-size="32.00" fill="#29235c">1</text>
<text text-anchor="middle" x="646.73" y="-393.15" font-family="Helvetica,sans-Serif" font-size="32.00" fill="#29235c">1</text>
</g>
</g>
</svg>
