<?xml version="1.0" encoding="UTF-8" standalone="no"?>
<!DOCTYPE svg PUBLIC "-//W3C//DTD SVG 1.1//EN"
 "http://www.w3.org/Graphics/SVG/1.1/DTD/svg11.dtd">
<!-- Generated by graphviz version 2.47.0 (20210316.0004)
 -->
<!-- Title: dbml Pages: 1 -->
<svg width="1810pt" height="2013pt"
 viewBox="0.00 0.00 1810.35 2012.91" xmlns="http://www.w3.org/2000/svg" xmlns:xlink="http://www.w3.org/1999/xlink">
<g id="graph0" class="graph" transform="scale(1 1) rotate(0) translate(4 2008.91)">
<title>dbml</title>
<!-- role -->
<g id="role" class="node">
<title>role</title>
<ellipse fill="none" stroke="black" stroke-width="0" cx="1349.8" cy="-346.37" rx="143.59" ry="214.92"/>
<polygon fill="#29235c" stroke="transparent" points="1250.8,-436.37 1250.8,-496.37 1449.8,-496.37 1449.8,-436.37 1250.8,-436.37"/>
<polygon fill="none" stroke="#29235c" points="1250.8,-436.37 1250.8,-496.37 1449.8,-496.37 1449.8,-436.37 1250.8,-436.37"/>
<text text-anchor="start" x="1261.39" y="-457.57" font-family="Helvetica,sans-Serif" font-weight="bold" font-size="32.00" fill="#ffffff"> &#160;&#160;&#160;&#160;&#160;&#160;role &#160;&#160;&#160;&#160;&#160;&#160;</text>
<polygon fill="#e7e2dd" stroke="transparent" points="1250.8,-376.37 1250.8,-436.37 1449.8,-436.37 1449.8,-376.37 1250.8,-376.37"/>
<polygon fill="none" stroke="#29235c" points="1250.8,-376.37 1250.8,-436.37 1449.8,-436.37 1449.8,-376.37 1250.8,-376.37"/>
<text text-anchor="start" x="1265.85" y="-397.57" font-family="Helvetica,sans-Serif" font-style="italic" font-size="32.00" fill="#1d71b8"> &#160;&#160;&#160;normal &#160;&#160;&#160;</text>
<polygon fill="#e7e2dd" stroke="transparent" points="1250.8,-316.37 1250.8,-376.37 1449.8,-376.37 1449.8,-316.37 1250.8,-316.37"/>
<polygon fill="none" stroke="#29235c" points="1250.8,-316.37 1250.8,-376.37 1449.8,-376.37 1449.8,-316.37 1250.8,-316.37"/>
<text text-anchor="start" x="1262.26" y="-337.57" font-family="Helvetica,sans-Serif" font-style="italic" font-size="32.00" fill="#1d71b8"> &#160;&#160;&#160;student &#160;&#160;&#160;</text>
<polygon fill="#e7e2dd" stroke="transparent" points="1250.8,-256.37 1250.8,-316.37 1449.8,-316.37 1449.8,-256.37 1250.8,-256.37"/>
<polygon fill="none" stroke="#29235c" points="1250.8,-256.37 1250.8,-316.37 1449.8,-316.37 1449.8,-256.37 1250.8,-256.37"/>
<text text-anchor="start" x="1283.62" y="-277.57" font-family="Helvetica,sans-Serif" font-style="italic" font-size="32.00" fill="#1d71b8"> &#160;&#160;&#160;mod &#160;&#160;&#160;</text>
<polygon fill="#e7e2dd" stroke="transparent" points="1250.8,-196.37 1250.8,-256.37 1449.8,-256.37 1449.8,-196.37 1250.8,-196.37"/>
<polygon fill="none" stroke="#29235c" points="1250.8,-196.37 1250.8,-256.37 1449.8,-256.37 1449.8,-196.37 1250.8,-196.37"/>
<text text-anchor="start" x="1271.17" y="-217.57" font-family="Helvetica,sans-Serif" font-style="italic" font-size="32.00" fill="#1d71b8"> &#160;&#160;&#160;admin &#160;&#160;&#160;</text>
<polygon fill="none" stroke="#29235c" stroke-width="2" points="1249.3,-195.37 1249.3,-497.37 1450.3,-497.37 1450.3,-195.37 1249.3,-195.37"/>
</g>
<!-- tyfons_lab_access_tokens -->
<g id="tyfons_lab_access_tokens" class="node">
<title>tyfons_lab_access_tokens</title>
<ellipse fill="none" stroke="black" stroke-width="0" cx="1349.8" cy="-794.37" rx="452.6" ry="214.92"/>
<polygon fill="#1d71b8" stroke="transparent" points="1031.8,-884.37 1031.8,-944.37 1667.8,-944.37 1667.8,-884.37 1031.8,-884.37"/>
<polygon fill="none" stroke="#29235c" points="1031.8,-884.37 1031.8,-944.37 1667.8,-944.37 1667.8,-884.37 1031.8,-884.37"/>
<text text-anchor="start" x="1099.93" y="-905.57" font-family="Helvetica,sans-Serif" font-weight="bold" font-size="32.00" fill="#ffffff"> &#160;&#160;&#160;&#160;&#160;&#160;tyfons_lab_access_tokens &#160;&#160;&#160;&#160;&#160;&#160;</text>
<polygon fill="#e7e2dd" stroke="transparent" points="1031.8,-824.37 1031.8,-884.37 1667.8,-884.37 1667.8,-824.37 1031.8,-824.37"/>
<polygon fill="none" stroke="#29235c" points="1031.8,-824.37 1031.8,-884.37 1667.8,-884.37 1667.8,-824.37 1031.8,-824.37"/>
<text text-anchor="start" x="1042.8" y="-845.57" font-family="Helvetica,sans-Serif" font-weight="bold" font-size="32.00" fill="#29235c">id</text>
<text text-anchor="start" x="1067.69" y="-845.57" font-family="Helvetica,sans-Serif" font-size="32.00" fill="#29235c"> &#160;&#160;&#160;</text>
<text text-anchor="start" x="1566.14" y="-845.57" font-family="Helvetica,sans-Serif" font-style="italic" font-size="32.00" fill="#29235c">text</text>
<text text-anchor="start" x="1617.71" y="-845.57" font-family="Helvetica,sans-Serif" font-size="32.00" fill="#29235c"> </text>
<text text-anchor="start" x="1626.61" y="-845.57" font-family="Helvetica,sans-Serif" font-weight="bold" font-size="32.00" fill="#29235c">(!)</text>
<polygon fill="#e7e2dd" stroke="transparent" points="1031.8,-764.37 1031.8,-824.37 1667.8,-824.37 1667.8,-764.37 1031.8,-764.37"/>
<polygon fill="none" stroke="#29235c" points="1031.8,-764.37 1031.8,-824.37 1667.8,-824.37 1667.8,-764.37 1031.8,-764.37"/>
<text text-anchor="start" x="1042.8" y="-784.57" font-family="Helvetica,sans-Serif" font-size="32.00" fill="#29235c">user_id &#160;&#160;&#160;</text>
<text text-anchor="start" x="1566.14" y="-785.57" font-family="Helvetica,sans-Serif" font-style="italic" font-size="32.00" fill="#29235c">text</text>
<text text-anchor="start" x="1617.71" y="-785.57" font-family="Helvetica,sans-Serif" font-size="32.00" fill="#29235c"> </text>
<text text-anchor="start" x="1626.61" y="-785.57" font-family="Helvetica,sans-Serif" font-weight="bold" font-size="32.00" fill="#29235c">(!)</text>
<polygon fill="#e7e2dd" stroke="transparent" points="1031.8,-704.37 1031.8,-764.37 1667.8,-764.37 1667.8,-704.37 1031.8,-704.37"/>
<polygon fill="none" stroke="#29235c" points="1031.8,-704.37 1031.8,-764.37 1667.8,-764.37 1667.8,-704.37 1031.8,-704.37"/>
<text text-anchor="start" x="1042.8" y="-724.57" font-family="Helvetica,sans-Serif" font-size="32.00" fill="#29235c">token &#160;&#160;&#160;</text>
<text text-anchor="start" x="1454.16" y="-725.57" font-family="Helvetica,sans-Serif" font-style="italic" font-size="32.00" fill="#29235c">varchar(30)</text>
<text text-anchor="start" x="1617.71" y="-725.57" font-family="Helvetica,sans-Serif" font-size="32.00" fill="#29235c"> </text>
<text text-anchor="start" x="1626.61" y="-725.57" font-family="Helvetica,sans-Serif" font-weight="bold" font-size="32.00" fill="#29235c">(!)</text>
<polygon fill="#e7e2dd" stroke="transparent" points="1031.8,-644.37 1031.8,-704.37 1667.8,-704.37 1667.8,-644.37 1031.8,-644.37"/>
<polygon fill="none" stroke="#29235c" points="1031.8,-644.37 1031.8,-704.37 1667.8,-704.37 1667.8,-644.37 1031.8,-644.37"/>
<text text-anchor="start" x="1042.65" y="-664.57" font-family="Helvetica,sans-Serif" font-size="32.00" fill="#29235c">expiration_date &#160;&#160;&#160;</text>
<text text-anchor="start" x="1296.34" y="-665.57" font-family="Helvetica,sans-Serif" font-style="italic" font-size="32.00" fill="#29235c">timestamp with time zone</text>
<polygon fill="none" stroke="#29235c" stroke-width="2" points="1030.8,-643.37 1030.8,-945.37 1668.8,-945.37 1668.8,-643.37 1030.8,-643.37"/>
</g>
<!-- tyfons_lab_post -->
<g id="tyfons_lab_post" class="node">
<title>tyfons_lab_post</title>
<ellipse fill="none" stroke="black" stroke-width="0" cx="430.63" cy="-1384.37" rx="281.36" ry="257.27"/>
<polygon fill="#1d71b8" stroke="transparent" points="233.63,-1504.37 233.63,-1564.37 627.63,-1564.37 627.63,-1504.37 233.63,-1504.37"/>
<polygon fill="none" stroke="#29235c" points="233.63,-1504.37 233.63,-1564.37 627.63,-1564.37 627.63,-1504.37 233.63,-1504.37"/>
<text text-anchor="start" x="256.33" y="-1525.57" font-family="Helvetica,sans-Serif" font-weight="bold" font-size="32.00" fill="#ffffff"> &#160;&#160;&#160;&#160;&#160;&#160;tyfons_lab_post &#160;&#160;&#160;&#160;&#160;&#160;</text>
<polygon fill="#e7e2dd" stroke="transparent" points="233.63,-1444.37 233.63,-1504.37 627.63,-1504.37 627.63,-1444.37 233.63,-1444.37"/>
<polygon fill="none" stroke="#29235c" points="233.63,-1444.37 233.63,-1504.37 627.63,-1504.37 627.63,-1444.37 233.63,-1444.37"/>
<text text-anchor="start" x="244.63" y="-1465.57" font-family="Helvetica,sans-Serif" font-weight="bold" font-size="32.00" fill="#29235c">id</text>
<text text-anchor="start" x="269.52" y="-1465.57" font-family="Helvetica,sans-Serif" font-size="32.00" fill="#29235c"> &#160;&#160;&#160;</text>
<text text-anchor="start" x="501.1" y="-1465.57" font-family="Helvetica,sans-Serif" font-style="italic" font-size="32.00" fill="#29235c">serial</text>
<text text-anchor="start" x="577.54" y="-1465.57" font-family="Helvetica,sans-Serif" font-size="32.00" fill="#29235c"> </text>
<text text-anchor="start" x="586.43" y="-1465.57" font-family="Helvetica,sans-Serif" font-weight="bold" font-size="32.00" fill="#29235c">(!)</text>
<polygon fill="#e7e2dd" stroke="transparent" points="233.63,-1384.37 233.63,-1444.37 627.63,-1444.37 627.63,-1384.37 233.63,-1384.37"/>
<polygon fill="none" stroke="#29235c" points="233.63,-1384.37 233.63,-1444.37 627.63,-1444.37 627.63,-1384.37 233.63,-1384.37"/>
<text text-anchor="start" x="244.63" y="-1404.57" font-family="Helvetica,sans-Serif" font-size="32.00" fill="#29235c">name &#160;&#160;&#160;</text>
<text text-anchor="start" x="396.19" y="-1405.57" font-family="Helvetica,sans-Serif" font-style="italic" font-size="32.00" fill="#29235c">varchar(256)</text>
<text text-anchor="start" x="577.54" y="-1405.57" font-family="Helvetica,sans-Serif" font-size="32.00" fill="#29235c"> </text>
<text text-anchor="start" x="586.43" y="-1405.57" font-family="Helvetica,sans-Serif" font-weight="bold" font-size="32.00" fill="#29235c">(!)</text>
<polygon fill="#e7e2dd" stroke="transparent" points="233.63,-1324.37 233.63,-1384.37 627.63,-1384.37 627.63,-1324.37 233.63,-1324.37"/>
<polygon fill="none" stroke="#29235c" points="233.63,-1324.37 233.63,-1384.37 627.63,-1384.37 627.63,-1324.37 233.63,-1324.37"/>
<text text-anchor="start" x="244.63" y="-1344.57" font-family="Helvetica,sans-Serif" font-size="32.00" fill="#29235c">content &#160;&#160;&#160;</text>
<text text-anchor="start" x="396.19" y="-1345.57" font-family="Helvetica,sans-Serif" font-style="italic" font-size="32.00" fill="#29235c">varchar(256)</text>
<text text-anchor="start" x="577.54" y="-1345.57" font-family="Helvetica,sans-Serif" font-size="32.00" fill="#29235c"> </text>
<text text-anchor="start" x="586.43" y="-1345.57" font-family="Helvetica,sans-Serif" font-weight="bold" font-size="32.00" fill="#29235c">(!)</text>
<polygon fill="#e7e2dd" stroke="transparent" points="233.63,-1264.37 233.63,-1324.37 627.63,-1324.37 627.63,-1264.37 233.63,-1264.37"/>
<polygon fill="none" stroke="#29235c" points="233.63,-1264.37 233.63,-1324.37 627.63,-1324.37 627.63,-1264.37 233.63,-1264.37"/>
<text text-anchor="start" x="244.26" y="-1284.57" font-family="Helvetica,sans-Serif" font-size="32.00" fill="#29235c">created_at &#160;&#160;&#160;</text>
<text text-anchor="start" x="430.3" y="-1285.57" font-family="Helvetica,sans-Serif" font-style="italic" font-size="32.00" fill="#29235c">timestamp</text>
<text text-anchor="start" x="577.86" y="-1285.57" font-family="Helvetica,sans-Serif" font-size="32.00" fill="#29235c"> </text>
<text text-anchor="start" x="586.75" y="-1285.57" font-family="Helvetica,sans-Serif" font-weight="bold" font-size="32.00" fill="#29235c">(!)</text>
<polygon fill="#e7e2dd" stroke="transparent" points="233.63,-1204.37 233.63,-1264.37 627.63,-1264.37 627.63,-1204.37 233.63,-1204.37"/>
<polygon fill="none" stroke="#29235c" points="233.63,-1204.37 233.63,-1264.37 627.63,-1264.37 627.63,-1204.37 233.63,-1204.37"/>
<text text-anchor="start" x="244.63" y="-1224.57" font-family="Helvetica,sans-Serif" font-size="32.00" fill="#29235c">updatedAt &#160;&#160;&#160;</text>
<text text-anchor="start" x="469.07" y="-1225.57" font-family="Helvetica,sans-Serif" font-style="italic" font-size="32.00" fill="#29235c">timestamp</text>
<polygon fill="none" stroke="#29235c" stroke-width="2" points="232.63,-1203.37 232.63,-1565.37 628.63,-1565.37 628.63,-1203.37 232.63,-1203.37"/>
</g>
<!-- tyfons_lab_session -->
<g id="tyfons_lab_session" class="node">
<title>tyfons_lab_session</title>
<ellipse fill="none" stroke="black" stroke-width="0" cx="430.63" cy="-1832.37" rx="430.76" ry="172.57"/>
<polygon fill="#1d71b8" stroke="transparent" points="128.63,-1892.37 128.63,-1952.37 733.63,-1952.37 733.63,-1892.37 128.63,-1892.37"/>
<polygon fill="none" stroke="#29235c" points="128.63,-1892.37 128.63,-1952.37 733.63,-1952.37 733.63,-1892.37 128.63,-1892.37"/>
<text text-anchor="start" x="232.84" y="-1913.57" font-family="Helvetica,sans-Serif" font-weight="bold" font-size="32.00" fill="#ffffff"> &#160;&#160;&#160;&#160;&#160;&#160;tyfons_lab_session &#160;&#160;&#160;&#160;&#160;&#160;</text>
<polygon fill="#e7e2dd" stroke="transparent" points="128.63,-1832.37 128.63,-1892.37 733.63,-1892.37 733.63,-1832.37 128.63,-1832.37"/>
<polygon fill="none" stroke="#29235c" points="128.63,-1832.37 128.63,-1892.37 733.63,-1892.37 733.63,-1832.37 128.63,-1832.37"/>
<text text-anchor="start" x="139.63" y="-1853.57" font-family="Helvetica,sans-Serif" font-weight="bold" font-size="32.00" fill="#29235c">id</text>
<text text-anchor="start" x="164.52" y="-1853.57" font-family="Helvetica,sans-Serif" font-size="32.00" fill="#29235c"> &#160;&#160;&#160;</text>
<text text-anchor="start" x="631.96" y="-1853.57" font-family="Helvetica,sans-Serif" font-style="italic" font-size="32.00" fill="#29235c">text</text>
<text text-anchor="start" x="683.54" y="-1853.57" font-family="Helvetica,sans-Serif" font-size="32.00" fill="#29235c"> </text>
<text text-anchor="start" x="692.43" y="-1853.57" font-family="Helvetica,sans-Serif" font-weight="bold" font-size="32.00" fill="#29235c">(!)</text>
<polygon fill="#e7e2dd" stroke="transparent" points="128.63,-1772.37 128.63,-1832.37 733.63,-1832.37 733.63,-1772.37 128.63,-1772.37"/>
<polygon fill="none" stroke="#29235c" points="128.63,-1772.37 128.63,-1832.37 733.63,-1832.37 733.63,-1772.37 128.63,-1772.37"/>
<text text-anchor="start" x="139.63" y="-1792.57" font-family="Helvetica,sans-Serif" font-size="32.00" fill="#29235c">user_id &#160;&#160;&#160;</text>
<text text-anchor="start" x="631.96" y="-1793.57" font-family="Helvetica,sans-Serif" font-style="italic" font-size="32.00" fill="#29235c">text</text>
<text text-anchor="start" x="683.54" y="-1793.57" font-family="Helvetica,sans-Serif" font-size="32.00" fill="#29235c"> </text>
<text text-anchor="start" x="692.43" y="-1793.57" font-family="Helvetica,sans-Serif" font-weight="bold" font-size="32.00" fill="#29235c">(!)</text>
<polygon fill="#e7e2dd" stroke="transparent" points="128.63,-1712.37 128.63,-1772.37 733.63,-1772.37 733.63,-1712.37 128.63,-1712.37"/>
<polygon fill="none" stroke="#29235c" points="128.63,-1712.37 128.63,-1772.37 733.63,-1772.37 733.63,-1712.37 128.63,-1712.37"/>
<text text-anchor="start" x="139.55" y="-1732.57" font-family="Helvetica,sans-Serif" font-size="32.00" fill="#29235c">expires_at &#160;&#160;&#160;</text>
<text text-anchor="start" x="322.62" y="-1733.57" font-family="Helvetica,sans-Serif" font-style="italic" font-size="32.00" fill="#29235c">timestamp with time zone</text>
<text text-anchor="start" x="683.54" y="-1733.57" font-family="Helvetica,sans-Serif" font-size="32.00" fill="#29235c"> </text>
<text text-anchor="start" x="692.44" y="-1733.57" font-family="Helvetica,sans-Serif" font-weight="bold" font-size="32.00" fill="#29235c">(!)</text>
<polygon fill="none" stroke="#29235c" stroke-width="2" points="127.13,-1711.37 127.13,-1953.37 734.13,-1953.37 734.13,-1711.37 127.13,-1711.37"/>
</g>
<!-- tyfons_lab_user -->
<g id="tyfons_lab_user" class="node">
<title>tyfons_lab_user</title>
<ellipse fill="none" stroke="black" stroke-width="0" cx="430.63" cy="-554.37" rx="319.72" ry="554.24"/>
<polygon fill="#1d71b8" stroke="transparent" points="206.63,-884.37 206.63,-944.37 654.63,-944.37 654.63,-884.37 206.63,-884.37"/>
<polygon fill="none" stroke="#29235c" points="206.63,-884.37 206.63,-944.37 654.63,-944.37 654.63,-884.37 206.63,-884.37"/>
<text text-anchor="start" x="255.45" y="-905.57" font-family="Helvetica,sans-Serif" font-weight="bold" font-size="32.00" fill="#ffffff"> &#160;&#160;&#160;&#160;&#160;&#160;tyfons_lab_user &#160;&#160;&#160;&#160;&#160;&#160;</text>
<polygon fill="#e7e2dd" stroke="transparent" points="206.63,-824.37 206.63,-884.37 654.63,-884.37 654.63,-824.37 206.63,-824.37"/>
<polygon fill="none" stroke="#29235c" points="206.63,-824.37 206.63,-884.37 654.63,-884.37 654.63,-824.37 206.63,-824.37"/>
<text text-anchor="start" x="217.63" y="-845.57" font-family="Helvetica,sans-Serif" font-weight="bold" font-size="32.00" fill="#29235c">id</text>
<text text-anchor="start" x="242.52" y="-845.57" font-family="Helvetica,sans-Serif" font-size="32.00" fill="#29235c"> &#160;&#160;&#160;</text>
<text text-anchor="start" x="552.96" y="-845.57" font-family="Helvetica,sans-Serif" font-style="italic" font-size="32.00" fill="#29235c">text</text>
<text text-anchor="start" x="604.54" y="-845.57" font-family="Helvetica,sans-Serif" font-size="32.00" fill="#29235c"> </text>
<text text-anchor="start" x="613.43" y="-845.57" font-family="Helvetica,sans-Serif" font-weight="bold" font-size="32.00" fill="#29235c">(!)</text>
<polygon fill="#e7e2dd" stroke="transparent" points="206.63,-764.37 206.63,-824.37 654.63,-824.37 654.63,-764.37 206.63,-764.37"/>
<polygon fill="none" stroke="#29235c" points="206.63,-764.37 206.63,-824.37 654.63,-824.37 654.63,-764.37 206.63,-764.37"/>
<text text-anchor="start" x="217.63" y="-784.57" font-family="Helvetica,sans-Serif" font-size="32.00" fill="#29235c">name &#160;&#160;&#160;</text>
<text text-anchor="start" x="462.28" y="-785.57" font-family="Helvetica,sans-Serif" font-style="italic" font-size="32.00" fill="#29235c">varchar(255)</text>
<polygon fill="#e7e2dd" stroke="transparent" points="206.63,-704.37 206.63,-764.37 654.63,-764.37 654.63,-704.37 206.63,-704.37"/>
<polygon fill="none" stroke="#29235c" points="206.63,-704.37 206.63,-764.37 654.63,-764.37 654.63,-704.37 206.63,-704.37"/>
<text text-anchor="start" x="217.63" y="-724.57" font-family="Helvetica,sans-Serif" font-size="32.00" fill="#29235c">email &#160;&#160;&#160;</text>
<text text-anchor="start" x="423.19" y="-725.57" font-family="Helvetica,sans-Serif" font-style="italic" font-size="32.00" fill="#29235c">varchar(255)</text>
<text text-anchor="start" x="604.54" y="-725.57" font-family="Helvetica,sans-Serif" font-size="32.00" fill="#29235c"> </text>
<text text-anchor="start" x="613.43" y="-725.57" font-family="Helvetica,sans-Serif" font-weight="bold" font-size="32.00" fill="#29235c">(!)</text>
<polygon fill="#e7e2dd" stroke="transparent" points="206.63,-644.37 206.63,-704.37 654.63,-704.37 654.63,-644.37 206.63,-644.37"/>
<polygon fill="none" stroke="#29235c" points="206.63,-644.37 206.63,-704.37 654.63,-704.37 654.63,-644.37 206.63,-644.37"/>
<text text-anchor="start" x="217.63" y="-664.57" font-family="Helvetica,sans-Serif" font-size="32.00" fill="#29235c">emailVerified &#160;&#160;&#160;</text>
<text text-anchor="start" x="496.07" y="-665.57" font-family="Helvetica,sans-Serif" font-style="italic" font-size="32.00" fill="#29235c">timestamp</text>
<polygon fill="#e7e2dd" stroke="transparent" points="206.63,-584.37 206.63,-644.37 654.63,-644.37 654.63,-584.37 206.63,-584.37"/>
<polygon fill="none" stroke="#29235c" points="206.63,-584.37 206.63,-644.37 654.63,-644.37 654.63,-584.37 206.63,-584.37"/>
<text text-anchor="start" x="217.63" y="-604.57" font-family="Helvetica,sans-Serif" font-size="32.00" fill="#29235c">image &#160;&#160;&#160;</text>
<text text-anchor="start" x="462.28" y="-605.57" font-family="Helvetica,sans-Serif" font-style="italic" font-size="32.00" fill="#29235c">varchar(255)</text>
<polygon fill="#e7e2dd" stroke="transparent" points="206.63,-524.37 206.63,-584.37 654.63,-584.37 654.63,-524.37 206.63,-524.37"/>
<polygon fill="none" stroke="#29235c" points="206.63,-524.37 206.63,-584.37 654.63,-584.37 654.63,-524.37 206.63,-524.37"/>
<text text-anchor="start" x="217.63" y="-544.57" font-family="Helvetica,sans-Serif" font-size="32.00" fill="#29235c">role &#160;&#160;&#160;</text>
<text text-anchor="start" x="551.21" y="-545.57" font-family="Helvetica,sans-Serif" font-style="italic" font-size="32.00" fill="#29235c">role</text>
<text text-anchor="start" x="604.54" y="-545.57" font-family="Helvetica,sans-Serif" font-size="32.00" fill="#29235c"> </text>
<text text-anchor="start" x="613.43" y="-545.57" font-family="Helvetica,sans-Serif" font-weight="bold" font-size="32.00" fill="#29235c">(!)</text>
<polygon fill="#e7e2dd" stroke="transparent" points="206.63,-464.37 206.63,-524.37 654.63,-524.37 654.63,-464.37 206.63,-464.37"/>
<polygon fill="none" stroke="#29235c" points="206.63,-464.37 206.63,-524.37 654.63,-524.37 654.63,-464.37 206.63,-464.37"/>
<text text-anchor="start" x="217.63" y="-484.57" font-family="Helvetica,sans-Serif" font-size="32.00" fill="#29235c">tokenId &#160;&#160;&#160;</text>
<text text-anchor="start" x="592.05" y="-485.57" font-family="Helvetica,sans-Serif" font-style="italic" font-size="32.00" fill="#29235c">text</text>
<polygon fill="#e7e2dd" stroke="transparent" points="206.63,-404.37 206.63,-464.37 654.63,-464.37 654.63,-404.37 206.63,-404.37"/>
<polygon fill="none" stroke="#29235c" points="206.63,-404.37 206.63,-464.37 654.63,-464.37 654.63,-404.37 206.63,-404.37"/>
<text text-anchor="start" x="217.63" y="-424.57" font-family="Helvetica,sans-Serif" font-size="32.00" fill="#29235c">wsTokenId &#160;&#160;&#160;</text>
<text text-anchor="start" x="592.05" y="-425.57" font-family="Helvetica,sans-Serif" font-style="italic" font-size="32.00" fill="#29235c">text</text>
<polygon fill="#e7e2dd" stroke="transparent" points="206.63,-344.37 206.63,-404.37 654.63,-404.37 654.63,-344.37 206.63,-344.37"/>
<polygon fill="none" stroke="#29235c" points="206.63,-344.37 206.63,-404.37 654.63,-404.37 654.63,-344.37 206.63,-344.37"/>
<text text-anchor="start" x="217.63" y="-364.57" font-family="Helvetica,sans-Serif" font-size="32.00" fill="#29235c">updated_at &#160;&#160;&#160;</text>
<text text-anchor="start" x="456.98" y="-365.57" font-family="Helvetica,sans-Serif" font-style="italic" font-size="32.00" fill="#29235c">timestamp</text>
<text text-anchor="start" x="604.54" y="-365.57" font-family="Helvetica,sans-Serif" font-size="32.00" fill="#29235c"> </text>
<text text-anchor="start" x="613.43" y="-365.57" font-family="Helvetica,sans-Serif" font-weight="bold" font-size="32.00" fill="#29235c">(!)</text>
<polygon fill="#e7e2dd" stroke="transparent" points="206.63,-284.37 206.63,-344.37 654.63,-344.37 654.63,-284.37 206.63,-284.37"/>
<polygon fill="none" stroke="#29235c" points="206.63,-284.37 206.63,-344.37 654.63,-344.37 654.63,-284.37 206.63,-284.37"/>
<text text-anchor="start" x="217.63" y="-304.57" font-family="Helvetica,sans-Serif" font-size="32.00" fill="#29235c">created_at &#160;&#160;&#160;</text>
<text text-anchor="start" x="456.98" y="-305.57" font-family="Helvetica,sans-Serif" font-style="italic" font-size="32.00" fill="#29235c">timestamp</text>
<text text-anchor="start" x="604.54" y="-305.57" font-family="Helvetica,sans-Serif" font-size="32.00" fill="#29235c"> </text>
<text text-anchor="start" x="613.43" y="-305.57" font-family="Helvetica,sans-Serif" font-weight="bold" font-size="32.00" fill="#29235c">(!)</text>
<polygon fill="#e7e2dd" stroke="transparent" points="206.63,-224.37 206.63,-284.37 654.63,-284.37 654.63,-224.37 206.63,-224.37"/>
<polygon fill="none" stroke="#29235c" points="206.63,-224.37 206.63,-284.37 654.63,-284.37 654.63,-224.37 206.63,-224.37"/>
<text text-anchor="start" x="217.63" y="-244.57" font-family="Helvetica,sans-Serif" font-size="32.00" fill="#29235c">created_by_id &#160;&#160;&#160;</text>
<text text-anchor="start" x="462.28" y="-245.57" font-family="Helvetica,sans-Serif" font-style="italic" font-size="32.00" fill="#29235c">varchar(255)</text>
<polygon fill="#e7e2dd" stroke="transparent" points="206.63,-164.37 206.63,-224.37 654.63,-224.37 654.63,-164.37 206.63,-164.37"/>
<polygon fill="none" stroke="#29235c" points="206.63,-164.37 206.63,-224.37 654.63,-224.37 654.63,-164.37 206.63,-164.37"/>
<text text-anchor="start" x="217.4" y="-184.57" font-family="Helvetica,sans-Serif" font-size="32.00" fill="#29235c">updated_by_id &#160;&#160;&#160;</text>
<text text-anchor="start" x="462.46" y="-185.57" font-family="Helvetica,sans-Serif" font-style="italic" font-size="32.00" fill="#29235c">varchar(255)</text>
<polygon fill="none" stroke="#29235c" stroke-width="2" points="205.63,-163.37 205.63,-945.37 655.63,-945.37 655.63,-163.37 205.63,-163.37"/>
</g>
<!-- tyfons_lab_user&#45;&gt;role -->
<g id="edge3" class="edge">
<title>tyfons_lab_user:e&#45;&gt;role:w</title>
<path fill="none" stroke="#29235c" stroke-width="3" d="M655.63,-554.37C922.59,-554.37 982.85,-466.37 1249.8,-466.37"/>
</g>
<!-- tyfons_lab_user&#45;&gt;tyfons_lab_access_tokens -->
<!-- tyfons_lab_user&#45;&gt;tyfons_lab_access_tokens -->
<g id="edge2" class="edge">
<title>tyfons_lab_user:e&#45;&gt;tyfons_lab_access_tokens:w</title>
<path fill="none" stroke="#29235c" stroke-width="3" d="M655.63,-434.37C902.5,-434.37 783.87,-842.97 1020.75,-854.14"/>
<polygon fill="#29235c" stroke="#29235c" stroke-width="3" points="1020.73,-857.64 1030.8,-854.37 1020.89,-850.64 1020.73,-857.64"/>
<text text-anchor="middle" x="1021.91" y="-863.97" font-family="Helvetica,sans-Serif" font-size="32.00" fill="#29235c">1</text>
<text text-anchor="middle" x="646.73" y="-405.57" font-family="Helvetica,sans-Serif" font-size="32.00" fill="#29235c">1</text>
</g>
</g>
</svg>
