<?xml version="1.0" encoding="UTF-8" standalone="no"?>
<!DOCTYPE svg PUBLIC "-//W3C//DTD SVG 1.1//EN"
 "http://www.w3.org/Graphics/SVG/1.1/DTD/svg11.dtd">
<!-- Generated by graphviz version 2.47.0 (20210316.0004)
 -->
<!-- Title: dbml Pages: 1 -->
<svg width="869pt" height="1249pt"
 viewBox="0.00 0.00 869.26 1248.92" xmlns="http://www.w3.org/2000/svg" xmlns:xlink="http://www.w3.org/1999/xlink">
<g id="graph0" class="graph" transform="scale(1 1) rotate(0) translate(4 1244.92)">
<title>dbml</title>
<!-- tyfons_lab_session -->
<g id="tyfons_lab_session" class="node">
<title>tyfons_lab_session</title>
<ellipse fill="none" stroke="black" stroke-width="0" cx="430.63" cy="-172.53" rx="430.76" ry="172.57"/>
<polygon fill="#1d71b8" stroke="transparent" points="128.63,-232.53 128.63,-292.53 733.63,-292.53 733.63,-232.53 128.63,-232.53"/>
<polygon fill="none" stroke="#29235c" points="128.63,-232.53 128.63,-292.53 733.63,-292.53 733.63,-232.53 128.63,-232.53"/>
<text text-anchor="start" x="232.84" y="-253.73" font-family="Helvetica,sans-Serif" font-weight="bold" font-size="32.00" fill="#ffffff"> &#160;&#160;&#160;&#160;&#160;&#160;tyfons_lab_session &#160;&#160;&#160;&#160;&#160;&#160;</text>
<polygon fill="#e7e2dd" stroke="transparent" points="128.63,-172.53 128.63,-232.53 733.63,-232.53 733.63,-172.53 128.63,-172.53"/>
<polygon fill="none" stroke="#29235c" points="128.63,-172.53 128.63,-232.53 733.63,-232.53 733.63,-172.53 128.63,-172.53"/>
<text text-anchor="start" x="139.63" y="-193.73" font-family="Helvetica,sans-Serif" font-weight="bold" font-size="32.00" fill="#29235c">id</text>
<text text-anchor="start" x="164.52" y="-193.73" font-family="Helvetica,sans-Serif" font-size="32.00" fill="#29235c"> &#160;&#160;&#160;</text>
<text text-anchor="start" x="631.96" y="-193.73" font-family="Helvetica,sans-Serif" font-style="italic" font-size="32.00" fill="#29235c">text</text>
<text text-anchor="start" x="683.54" y="-193.73" font-family="Helvetica,sans-Serif" font-size="32.00" fill="#29235c"> </text>
<text text-anchor="start" x="692.43" y="-193.73" font-family="Helvetica,sans-Serif" font-weight="bold" font-size="32.00" fill="#29235c">(!)</text>
<polygon fill="#e7e2dd" stroke="transparent" points="128.63,-112.53 128.63,-172.53 733.63,-172.53 733.63,-112.53 128.63,-112.53"/>
<polygon fill="none" stroke="#29235c" points="128.63,-112.53 128.63,-172.53 733.63,-172.53 733.63,-112.53 128.63,-112.53"/>
<text text-anchor="start" x="139.63" y="-132.73" font-family="Helvetica,sans-Serif" font-size="32.00" fill="#29235c">user_id &#160;&#160;&#160;</text>
<text text-anchor="start" x="631.96" y="-133.73" font-family="Helvetica,sans-Serif" font-style="italic" font-size="32.00" fill="#29235c">text</text>
<text text-anchor="start" x="683.54" y="-133.73" font-family="Helvetica,sans-Serif" font-size="32.00" fill="#29235c"> </text>
<text text-anchor="start" x="692.43" y="-133.73" font-family="Helvetica,sans-Serif" font-weight="bold" font-size="32.00" fill="#29235c">(!)</text>
<polygon fill="#e7e2dd" stroke="transparent" points="128.63,-52.53 128.63,-112.53 733.63,-112.53 733.63,-52.53 128.63,-52.53"/>
<polygon fill="none" stroke="#29235c" points="128.63,-52.53 128.63,-112.53 733.63,-112.53 733.63,-52.53 128.63,-52.53"/>
<text text-anchor="start" x="139.55" y="-72.73" font-family="Helvetica,sans-Serif" font-size="32.00" fill="#29235c">expires_at &#160;&#160;&#160;</text>
<text text-anchor="start" x="322.62" y="-73.73" font-family="Helvetica,sans-Serif" font-style="italic" font-size="32.00" fill="#29235c">timestamp with time zone</text>
<text text-anchor="start" x="683.54" y="-73.73" font-family="Helvetica,sans-Serif" font-size="32.00" fill="#29235c"> </text>
<text text-anchor="start" x="692.44" y="-73.73" font-family="Helvetica,sans-Serif" font-weight="bold" font-size="32.00" fill="#29235c">(!)</text>
<polygon fill="none" stroke="#29235c" stroke-width="2" points="127.13,-51.53 127.13,-293.53 734.13,-293.53 734.13,-51.53 127.13,-51.53"/>
</g>
<!-- tyfons_lab_user -->
<g id="tyfons_lab_user" class="node">
<title>tyfons_lab_user</title>
<ellipse fill="none" stroke="black" stroke-width="0" cx="430.63" cy="-535.53" rx="265.74" ry="172.57"/>
<polygon fill="#1d71b8" stroke="transparent" points="244.63,-595.53 244.63,-655.53 616.63,-655.53 616.63,-595.53 244.63,-595.53"/>
<polygon fill="none" stroke="#29235c" points="244.63,-595.53 244.63,-655.53 616.63,-655.53 616.63,-595.53 244.63,-595.53"/>
<text text-anchor="start" x="255.45" y="-616.73" font-family="Helvetica,sans-Serif" font-weight="bold" font-size="32.00" fill="#ffffff"> &#160;&#160;&#160;&#160;&#160;&#160;tyfons_lab_user &#160;&#160;&#160;&#160;&#160;&#160;</text>
<polygon fill="#e7e2dd" stroke="transparent" points="244.63,-535.53 244.63,-595.53 616.63,-595.53 616.63,-535.53 244.63,-535.53"/>
<polygon fill="none" stroke="#29235c" points="244.63,-535.53 244.63,-595.53 616.63,-595.53 616.63,-535.53 244.63,-535.53"/>
<text text-anchor="start" x="255.63" y="-556.73" font-family="Helvetica,sans-Serif" font-weight="bold" font-size="32.00" fill="#29235c">id</text>
<text text-anchor="start" x="280.52" y="-556.73" font-family="Helvetica,sans-Serif" font-size="32.00" fill="#29235c"> &#160;&#160;&#160;</text>
<text text-anchor="start" x="514.96" y="-556.73" font-family="Helvetica,sans-Serif" font-style="italic" font-size="32.00" fill="#29235c">text</text>
<text text-anchor="start" x="566.54" y="-556.73" font-family="Helvetica,sans-Serif" font-size="32.00" fill="#29235c"> </text>
<text text-anchor="start" x="575.43" y="-556.73" font-family="Helvetica,sans-Serif" font-weight="bold" font-size="32.00" fill="#29235c">(!)</text>
<polygon fill="#e7e2dd" stroke="transparent" points="244.63,-475.53 244.63,-535.53 616.63,-535.53 616.63,-475.53 244.63,-475.53"/>
<polygon fill="none" stroke="#29235c" points="244.63,-475.53 244.63,-535.53 616.63,-535.53 616.63,-475.53 244.63,-475.53"/>
<text text-anchor="start" x="255.63" y="-495.73" font-family="Helvetica,sans-Serif" font-size="32.00" fill="#29235c">username &#160;&#160;&#160;</text>
<text text-anchor="start" x="514.96" y="-496.73" font-family="Helvetica,sans-Serif" font-style="italic" font-size="32.00" fill="#29235c">text</text>
<text text-anchor="start" x="566.54" y="-496.73" font-family="Helvetica,sans-Serif" font-size="32.00" fill="#29235c"> </text>
<text text-anchor="start" x="575.43" y="-496.73" font-family="Helvetica,sans-Serif" font-weight="bold" font-size="32.00" fill="#29235c">(!)</text>
<polygon fill="#e7e2dd" stroke="transparent" points="244.63,-415.53 244.63,-475.53 616.63,-475.53 616.63,-415.53 244.63,-415.53"/>
<polygon fill="none" stroke="#29235c" points="244.63,-415.53 244.63,-475.53 616.63,-475.53 616.63,-415.53 244.63,-415.53"/>
<text text-anchor="start" x="255.63" y="-435.73" font-family="Helvetica,sans-Serif" font-size="32.00" fill="#29235c">password &#160;&#160;&#160;</text>
<text text-anchor="start" x="514.96" y="-436.73" font-family="Helvetica,sans-Serif" font-style="italic" font-size="32.00" fill="#29235c">text</text>
<text text-anchor="start" x="566.54" y="-436.73" font-family="Helvetica,sans-Serif" font-size="32.00" fill="#29235c"> </text>
<text text-anchor="start" x="575.43" y="-436.73" font-family="Helvetica,sans-Serif" font-weight="bold" font-size="32.00" fill="#29235c">(!)</text>
<polygon fill="none" stroke="#29235c" stroke-width="2" points="243.63,-414.53 243.63,-656.53 617.63,-656.53 617.63,-414.53 243.63,-414.53"/>
</g>
<!-- tyfons_lab_post -->
<g id="tyfons_lab_post" class="node">
<title>tyfons_lab_post</title>
<ellipse fill="none" stroke="black" stroke-width="0" cx="430.63" cy="-983.53" rx="281.36" ry="257.27"/>
<polygon fill="#1d71b8" stroke="transparent" points="233.63,-1103.53 233.63,-1163.53 627.63,-1163.53 627.63,-1103.53 233.63,-1103.53"/>
<polygon fill="none" stroke="#29235c" points="233.63,-1103.53 233.63,-1163.53 627.63,-1163.53 627.63,-1103.53 233.63,-1103.53"/>
<text text-anchor="start" x="256.33" y="-1124.73" font-family="Helvetica,sans-Serif" font-weight="bold" font-size="32.00" fill="#ffffff"> &#160;&#160;&#160;&#160;&#160;&#160;tyfons_lab_post &#160;&#160;&#160;&#160;&#160;&#160;</text>
<polygon fill="#e7e2dd" stroke="transparent" points="233.63,-1043.53 233.63,-1103.53 627.63,-1103.53 627.63,-1043.53 233.63,-1043.53"/>
<polygon fill="none" stroke="#29235c" points="233.63,-1043.53 233.63,-1103.53 627.63,-1103.53 627.63,-1043.53 233.63,-1043.53"/>
<text text-anchor="start" x="244.63" y="-1064.73" font-family="Helvetica,sans-Serif" font-weight="bold" font-size="32.00" fill="#29235c">id</text>
<text text-anchor="start" x="269.52" y="-1064.73" font-family="Helvetica,sans-Serif" font-size="32.00" fill="#29235c"> &#160;&#160;&#160;</text>
<text text-anchor="start" x="501.1" y="-1064.73" font-family="Helvetica,sans-Serif" font-style="italic" font-size="32.00" fill="#29235c">serial</text>
<text text-anchor="start" x="577.54" y="-1064.73" font-family="Helvetica,sans-Serif" font-size="32.00" fill="#29235c"> </text>
<text text-anchor="start" x="586.43" y="-1064.73" font-family="Helvetica,sans-Serif" font-weight="bold" font-size="32.00" fill="#29235c">(!)</text>
<polygon fill="#e7e2dd" stroke="transparent" points="233.63,-983.53 233.63,-1043.53 627.63,-1043.53 627.63,-983.53 233.63,-983.53"/>
<polygon fill="none" stroke="#29235c" points="233.63,-983.53 233.63,-1043.53 627.63,-1043.53 627.63,-983.53 233.63,-983.53"/>
<text text-anchor="start" x="244.63" y="-1003.73" font-family="Helvetica,sans-Serif" font-size="32.00" fill="#29235c">name &#160;&#160;&#160;</text>
<text text-anchor="start" x="396.19" y="-1004.73" font-family="Helvetica,sans-Serif" font-style="italic" font-size="32.00" fill="#29235c">varchar(256)</text>
<text text-anchor="start" x="577.54" y="-1004.73" font-family="Helvetica,sans-Serif" font-size="32.00" fill="#29235c"> </text>
<text text-anchor="start" x="586.43" y="-1004.73" font-family="Helvetica,sans-Serif" font-weight="bold" font-size="32.00" fill="#29235c">(!)</text>
<polygon fill="#e7e2dd" stroke="transparent" points="233.63,-923.53 233.63,-983.53 627.63,-983.53 627.63,-923.53 233.63,-923.53"/>
<polygon fill="none" stroke="#29235c" points="233.63,-923.53 233.63,-983.53 627.63,-983.53 627.63,-923.53 233.63,-923.53"/>
<text text-anchor="start" x="244.63" y="-943.73" font-family="Helvetica,sans-Serif" font-size="32.00" fill="#29235c">content &#160;&#160;&#160;</text>
<text text-anchor="start" x="396.19" y="-944.73" font-family="Helvetica,sans-Serif" font-style="italic" font-size="32.00" fill="#29235c">varchar(256)</text>
<text text-anchor="start" x="577.54" y="-944.73" font-family="Helvetica,sans-Serif" font-size="32.00" fill="#29235c"> </text>
<text text-anchor="start" x="586.43" y="-944.73" font-family="Helvetica,sans-Serif" font-weight="bold" font-size="32.00" fill="#29235c">(!)</text>
<polygon fill="#e7e2dd" stroke="transparent" points="233.63,-863.53 233.63,-923.53 627.63,-923.53 627.63,-863.53 233.63,-863.53"/>
<polygon fill="none" stroke="#29235c" points="233.63,-863.53 233.63,-923.53 627.63,-923.53 627.63,-863.53 233.63,-863.53"/>
<text text-anchor="start" x="244.26" y="-883.73" font-family="Helvetica,sans-Serif" font-size="32.00" fill="#29235c">created_at &#160;&#160;&#160;</text>
<text text-anchor="start" x="430.3" y="-884.73" font-family="Helvetica,sans-Serif" font-style="italic" font-size="32.00" fill="#29235c">timestamp</text>
<text text-anchor="start" x="577.86" y="-884.73" font-family="Helvetica,sans-Serif" font-size="32.00" fill="#29235c"> </text>
<text text-anchor="start" x="586.75" y="-884.73" font-family="Helvetica,sans-Serif" font-weight="bold" font-size="32.00" fill="#29235c">(!)</text>
<polygon fill="#e7e2dd" stroke="transparent" points="233.63,-803.53 233.63,-863.53 627.63,-863.53 627.63,-803.53 233.63,-803.53"/>
<polygon fill="none" stroke="#29235c" points="233.63,-803.53 233.63,-863.53 627.63,-863.53 627.63,-803.53 233.63,-803.53"/>
<text text-anchor="start" x="244.63" y="-823.73" font-family="Helvetica,sans-Serif" font-size="32.00" fill="#29235c">updatedAt &#160;&#160;&#160;</text>
<text text-anchor="start" x="469.07" y="-824.73" font-family="Helvetica,sans-Serif" font-style="italic" font-size="32.00" fill="#29235c">timestamp</text>
<polygon fill="none" stroke="#29235c" stroke-width="2" points="232.63,-802.53 232.63,-1164.53 628.63,-1164.53 628.63,-802.53 232.63,-802.53"/>
</g>
</g>
</svg>
